<?xml version="1.0" encoding="utf-8" ?>
<svg xmlns="http://www.w3.org/2000/svg" xmlns:xlink="http://www.w3.org/1999/xlink" width="279" height="120">
	<rect fill="white" width="279" height="120"/>
	<rect width="4.5354328" height="94.48819"/>
	<rect x="6.8031502" width="2.2677164" height="94.48819"/>
	<rect x="13.6063" width="6.8031502" height="94.48819"/>
	<rect x="24.944881" width="4.5354328" height="94.48819"/>
	<rect x="31.748032" width="4.5354309" height="94.48819"/>
	<rect x="38.551178" width="9.0708656" height="94.48819"/>
	<rect x="49.889763" width="4.5354309" height="94.48819"/>
	<rect x="56.692917" width="2.2677155" height="94.48819"/>
	<rect x="65.763779" width="6.8031464" height="94.48819"/>
	<rect x="74.834641" width="2.2677155" height="94.48819"/>
	<rect x="79.370079" width="6.803154" height="94.48819"/>
	<rect x="92.976379" width="4.5354309" height="94.48819"/>
	<rect x="99.779526" width="4.5354309" height="94.48819"/>
	<rect x="108.8504" width="6.8031464" height="94.48819"/>
	<rect x="120.18898" width="2.2677155" height="94.48819"/>
	<rect x="124.72441" width="2.2677155" height="94.48819"/>
	<rect x="133.79529" width="2.2677155" height="94.48819"/>
	<rect x="138.33072" width="9.0708618" height="94.48819"/>
	<rect x="149.66928" width="9.0708618" height="94.48819"/>
	<rect x="161.00787" width="2.2677155" height="94.48819"/>
	<rect x="170.07874" width="2.2677155" height="94.48819"/>
	<rect x="174.61417" width="2.2677155" height="94.48819"/>
	<rect x="179.1496" width="9.0708618" height="94.48819"/>
	<rect x="190.48819" width="6.8031464" height="94.48819"/>
	<rect x="199.55905" width="4.5354309" height="94.48819"/>
	<rect x="208.62991" width="2.2677155" height="94.48819"/>
	<rect x="215.43306" width="6.8031464" height="94.48819"/>
	<rect x="224.50394" width="4.5354309" height="94.48819"/>
	<rect x="231.3071" width="6.8031464" height="94.48819"/>
	<rect x="240.37796" width="2.2677155" height="94.48819"/>
	<rect x="249.44882" width="4.5354309" height="94.48819"/>
	<rect x="260.78738" width="6.8031616" height="94.48819"/>
	<rect x="269.85828" width="2.2677307" height="94.48819"/>
	<rect x="274.39371" width="4.5354309" height="94.48819"/>
	<text font-size="23" font-family="Arial" x="56.5, 69.291504, 82.083008, 94.874512, 107.66602, 120.45752, 133.24902, 146.04053, 158.83203, 171.62354, 184.41504, 197.20654, 209.99805, " y="114.82129, ">
			8949461894984
	</text>
</svg>
